<svg width="26" height="26" viewBox="0 0 26 26" fill="none" xmlns="http://www.w3.org/2000/svg">
<path d="M14.3333 18.7567V20.2364C14.3333 21.4137 13.9119 22.5428 13.1618 23.3753C12.4116 24.2078 11.3942 24.6755 10.3333 24.6755H5C3.93913 24.6755 2.92172 24.2078 2.17157 23.3753C1.42143 22.5428 1 21.4137 1 20.2364V5.43916C1 4.26182 1.42143 3.13271 2.17157 2.3002C2.92172 1.4677 3.93913 1 5 1H10.3333C11.3942 1 12.4116 1.4677 13.1618 2.3002C13.9119 3.13271 14.3333 4.26182 14.3333 5.43916V6.91889M19.6667 18.7567L25 12.8378L19.6667 18.7567ZM25 12.8378L19.6667 6.91889L25 12.8378ZM25 12.8378H6.33333H25Z" stroke="#ffffff" stroke-width="1.5" stroke-linecap="round" stroke-linejoin="round"/>
</svg>
